<svg xmlns:xlink="http://www.w3.org/1999/xlink" xmlns="http://www.w3.org/2000/svg" width="49" height="49" viewBox="0 0 49 49" fill="none">
  <path d="M11.2484 13.5677C10.7925 13.5677 10.418 13.1931 10.418 12.7372C10.418 12.2813 10.7925 11.9067 11.2484 11.9067H18.5353C18.9912 11.9067 19.3657 12.2813 19.3657 12.7372C19.3657 13.1931 18.9912 13.5677 18.5353 13.5677H11.2484Z" fill="white"/>
  <path d="M11.2484 18.4524C10.7925 18.4524 10.418 18.0779 10.418 17.622C10.418 17.166 10.7925 16.7915 11.2484 16.7915H18.5353C18.9912 16.7915 19.3657 17.166 19.3657 17.622C19.3657 18.0779 18.9912 18.4524 18.5353 18.4524H11.2484Z" fill="white"/>
  <path d="M11.2484 23.3377C10.7925 23.3377 10.418 22.9632 10.418 22.5072C10.418 22.0513 10.7925 21.6768 11.2484 21.6768H18.5353C18.9912 21.6768 19.3657 22.0513 19.3657 22.5072C19.3657 22.9632 18.9912 23.3377 18.5353 23.3377H11.2484Z" fill="white"/>
  <path d="M11.2484 28.2229C10.7925 28.2229 10.418 27.8484 10.418 27.3925C10.418 26.9365 10.7925 26.562 11.2484 26.562H18.5353C18.9912 26.562 19.3657 26.9365 19.3657 27.3925C19.3657 27.8484 18.9912 28.2229 18.5353 28.2229H11.2484Z" fill="white"/>
  <path d="M11.2484 33.1892C10.7925 33.1892 10.418 32.8147 10.418 32.3588C10.418 31.9028 10.7925 31.5283 11.2484 31.5283H18.5353C18.9912 31.5283 19.3657 31.9028 19.3657 32.3588C19.3657 32.8147 18.9912 33.1892 18.5353 33.1892H11.2484Z" fill="white"/>
  <path d="M22.6391 13.5677C22.1831 13.5677 21.8086 13.1931 21.8086 12.7372C21.8086 12.2813 22.1831 11.9067 22.6391 11.9067H29.9259C30.3819 11.9067 30.7564 12.2813 30.7564 12.7372C30.7564 13.1931 30.39 13.5677 29.9341 13.5677H22.6391Z" fill="white"/>
  <path d="M22.6391 18.4524C22.1831 18.4524 21.8086 18.0779 21.8086 17.622C21.8086 17.166 22.1831 16.7915 22.6391 16.7915H29.9259C30.3819 16.7915 30.7564 17.166 30.7564 17.622C30.7564 18.0779 30.39 18.4524 29.9341 18.4524H22.6391Z" fill="white"/>
  <path d="M22.6391 23.3377C22.1831 23.3377 21.8086 22.9632 21.8086 22.5072C21.8086 22.0513 22.1831 21.6768 22.6391 21.6768H26.1563C26.6122 21.6768 26.9867 22.0513 26.9867 22.5072C26.9867 22.9632 26.6122 23.3377 26.1563 23.3377H22.6391Z" fill="white"/>
  <path d="M34.3058 38.2694C34.1267 38.2694 33.9638 38.2124 33.8173 38.1147L30.927 36.0223C30.5606 35.7536 30.471 35.2325 30.7397 34.8662C30.8944 34.6545 31.1468 34.5242 31.4155 34.5242C31.5946 34.5242 31.7574 34.5812 31.904 34.6789L34.1511 36.3072L37.5299 32.098C37.6846 31.9026 37.9207 31.7886 38.1813 31.7886C38.3685 31.7886 38.5476 31.8537 38.7023 31.9677C38.8733 32.1061 38.9873 32.3015 39.0117 32.5213C39.0361 32.7412 38.971 32.961 38.8326 33.132L34.949 37.9519C34.7943 38.1554 34.5582 38.2694 34.3058 38.2694Z" fill="white"/>
  <path d="M34.7944 44.783C31.9366 44.783 29.2336 43.5374 27.3772 41.3635L27.2633 41.2251H9.92134C7.42183 41.2251 5.39453 39.1897 5.39453 36.6983V8.40572C5.39453 5.9062 7.42183 3.87891 9.92134 3.87891H31.2609C33.7604 3.87891 35.7877 5.9062 35.7877 8.40572V25.308L36.1296 25.3568C38.279 25.6499 40.2249 26.6269 41.7556 28.182C43.563 30.0139 44.5563 32.4483 44.5563 35.0211C44.5482 40.4028 40.1761 44.783 34.7944 44.783ZM34.7944 26.92C30.3327 26.92 26.7015 30.5513 26.7015 35.0211C26.7015 36.796 27.2633 38.4813 28.3298 39.8898C29.8768 41.9416 32.2297 43.1221 34.7944 43.1221C39.2561 43.1221 42.8873 39.4909 42.8873 35.0211C42.8873 32.8798 42.065 30.8688 40.5669 29.3463C39.0688 27.8238 37.0741 26.9689 34.9409 26.9282H34.9246C34.8839 26.92 34.8432 26.92 34.7944 26.92ZM9.92134 5.53982C8.34184 5.53982 7.05545 6.82622 7.05545 8.40572V36.6983C7.05545 38.2778 8.34184 39.5642 9.92134 39.5642H26.1478L25.8955 39.0105C25.3337 37.7567 25.0487 36.4133 25.0487 35.0211C25.0487 32.5948 25.9443 30.2744 27.5808 28.4751C29.201 26.6921 31.3993 25.5685 33.7848 25.3161L34.1349 25.2754V8.40572C34.1349 6.82622 32.8485 5.53982 31.269 5.53982H9.92134Z" fill="white"/>
</svg>