<svg xmlns:xlink="http://www.w3.org/1999/xlink" xmlns="http://www.w3.org/2000/svg" width="49" height="49" viewBox="0 0 49 49" fill="none">
  <path d="M29.7633 26.1466C30.2355 26.1466 30.6183 25.7638 30.6183 25.2916C30.6183 24.8193 30.2355 24.4365 29.7633 24.4365C29.291 24.4365 28.9082 24.8193 28.9082 25.2916C28.9082 25.7638 29.291 26.1466 29.7633 26.1466Z" fill="white"/>
  <path d="M45.2991 21.5757L38.9061 13.5765C38.7463 13.3767 38.4986 13.2568 38.2429 13.2568H11.7121C11.4484 13.2568 11.2086 13.3767 11.0488 13.5765L4.65583 21.5677L4.64784 21.5757C4.40011 21.8953 4.40811 22.3508 4.67981 22.6625L4.71976 22.6305L4.67981 22.6625L4.6878 22.6705L24.3462 44.4065C24.506 44.5824 24.7377 44.6862 24.9775 44.6862C25.2172 44.6862 25.4489 44.5824 25.6088 44.4065L45.2671 22.6705L45.2751 22.6625C45.5388 22.3508 45.5548 21.8953 45.2991 21.5757ZM42.8618 21.248H35.0464L31.2745 14.959H37.8353L42.8618 21.248ZM33.2564 22.9502L24.9695 41.7295L16.6906 22.9502H33.2564ZM16.8904 21.248L20.6622 14.959H29.2847L33.0566 21.248H16.8904ZM18.6724 14.959L14.9006 21.248H7.08516L12.1196 14.959H18.6724ZM14.8286 22.9502L22.0607 39.3481L7.229 22.9502H14.8286ZM42.7179 22.9502L27.8783 39.3481L35.1103 22.9502H42.7179Z" fill="white"/>
  <path d="M27.4226 25.2916C27.4226 24.8201 27.039 24.4365 26.5676 24.4365H20.6381C20.1666 24.4365 19.791 24.8201 19.791 25.2916C19.791 25.7631 20.1746 26.1466 20.6381 26.1466H26.5676C27.039 26.1466 27.4226 25.7631 27.4226 25.2916Z" fill="white"/>
  <path d="M24.9701 10.1643C25.4416 10.1643 25.8252 9.7807 25.8252 9.31721V4.52248C25.8252 4.051 25.4416 3.67542 24.9701 3.67542C24.5066 3.66742 24.123 4.051 24.123 4.51449V9.30922C24.123 9.7807 24.5066 10.1643 24.9701 10.1643Z" fill="white"/>
  <path d="M29.7651 10.1642C29.9809 10.1642 30.2046 10.0843 30.3645 9.91651L33.5609 6.72002C33.8966 6.38439 33.8966 5.84898 33.5609 5.51335C33.4011 5.35353 33.1854 5.26562 32.9616 5.26562C32.7379 5.26562 32.5221 5.35353 32.3623 5.51335L29.1658 8.70983C28.8302 9.04546 28.8302 9.58088 29.1658 9.91651C29.3336 10.0843 29.5494 10.1642 29.7651 10.1642Z" fill="white"/>
  <path d="M19.5753 9.91642C19.7432 10.0842 19.9589 10.1641 20.1747 10.1641C20.3904 10.1641 20.6142 10.0842 20.774 9.91642C20.9338 9.75659 21.0217 9.54083 21.0217 9.31708C21.0217 9.09332 20.9338 8.87756 20.774 8.71774L17.5775 5.52125C17.2419 5.18562 16.7065 5.18562 16.3709 5.52125C16.0352 5.85688 16.0352 6.3923 16.3709 6.72793L19.5753 9.91642Z" fill="white"/>
</svg>