<svg xmlns:xlink="http://www.w3.org/1999/xlink" xmlns="http://www.w3.org/2000/svg" width="49" height="49" viewBox="0 0 49 49" fill="none">
  <path d="M24.9707 45.2789C19.4634 45.2789 14.279 43.1339 10.3948 39.2414C6.5024 35.3573 4.35742 30.1812 4.35742 24.6655C4.35742 19.1582 6.5024 13.9738 10.3948 10.0896C14.2873 6.1972 19.4634 4.05223 24.9707 4.05223C28.3166 4.05223 31.6458 4.87212 34.5941 6.42909L34.9751 6.62786L37.2443 4.35865C37.501 4.10192 37.7909 4.04395 37.9897 4.04395C38.5197 4.04395 39.0746 4.44147 39.0746 5.11229V10.5534H44.524C45.0457 10.5534 45.377 10.893 45.5095 11.216C45.642 11.5389 45.6503 12.011 45.2776 12.3837L43.0084 14.6529L43.2072 15.0338C44.7642 17.9822 45.584 21.3114 45.584 24.6573C45.584 30.1646 43.4391 35.349 39.5466 39.2332C35.6625 43.1422 30.4781 45.2789 24.9707 45.2789ZM24.9707 6.18892C14.7842 6.18892 6.49412 14.479 6.49412 24.6655C6.49412 34.8521 14.7842 43.1422 24.9707 43.1422C35.1573 43.1422 43.4473 34.8521 43.4473 24.6655C43.4473 21.9988 42.8925 19.4149 41.7827 16.9966L41.4349 16.2264L38.7599 18.9014C38.5611 19.1002 38.2878 19.2161 38.0062 19.2161H31.9357L25.7244 25.4275C25.5256 25.6262 25.2523 25.7422 24.9707 25.7422C24.6809 25.7422 24.4159 25.6345 24.2171 25.4275C24.0183 25.2204 23.9024 24.9554 23.9024 24.6738C23.9024 24.3922 24.01 24.1189 24.2171 23.9202L30.4201 17.7171V11.6383C30.4201 11.3567 30.5278 11.0834 30.7348 10.8847L33.4099 8.20967L32.6396 7.86184C30.2214 6.75208 27.6375 6.18892 24.9707 6.18892ZM32.5568 12.0773V17.0794H37.559L41.9318 12.7067H37.998C37.4099 12.7067 36.9296 12.2263 36.9296 11.6383V7.70448L32.5568 12.0773ZM24.9707 37.1379C18.0886 37.1379 12.4984 31.5394 12.4984 24.6655C12.4984 17.7917 18.0886 12.1932 24.9707 12.1932C25.5587 12.1932 26.0391 12.6735 26.0391 13.2615C26.0391 13.8496 25.5587 14.3299 24.9707 14.3299C19.2729 14.3299 14.6351 18.9677 14.6351 24.6655C14.6351 30.3634 19.2729 35.0012 24.9707 35.0012C30.6686 35.0012 35.3064 30.3634 35.3064 24.6655C35.3064 24.0775 35.7867 23.5972 36.3747 23.5972C36.9627 23.5972 37.4431 24.0775 37.4431 24.6655C37.4431 31.5477 31.8529 37.1379 24.9707 37.1379Z" fill="white"/>
</svg>