<svg xmlns:xlink="http://www.w3.org/1999/xlink" xmlns="http://www.w3.org/2000/svg" width="49" height="49" viewBox="0 0 49 49" fill="none">
  <path d="M21.5638 6.9165C13.767 6.9165 7.42188 13.2616 7.42188 21.0585C7.42188 28.8553 13.767 35.2004 21.5638 35.2004C29.3607 35.2004 35.7058 28.8553 35.7058 21.0585C35.7058 17.2839 34.2284 13.7313 31.5554 11.0583C28.891 8.3939 25.3384 6.9165 21.5638 6.9165ZM33.6306 24.5171C32.7083 27.7366 30.5904 30.4096 27.6613 32.0322C25.7996 33.0655 23.6988 33.612 21.5724 33.612H21.5553C14.6466 33.612 9.01882 27.9843 9.01028 21.0756C9.01028 20.6656 9.02736 20.2557 9.07006 19.8544H11.5552C11.9053 21.0329 12.9898 21.8527 14.2281 21.8527C14.6893 21.8527 15.1504 21.7331 15.5518 21.5025L18.4468 24.3975C18.2248 24.7989 18.1052 25.2601 18.0967 25.7212C18.0967 27.2669 19.352 28.5223 20.8977 28.5223C22.4434 28.5223 23.6988 27.2669 23.6988 25.7212C23.6988 25.2601 23.5792 24.7989 23.3487 24.3975L27.5844 20.1618C27.9858 20.3838 28.4469 20.5034 28.9081 20.5119C30.4538 20.5119 31.7092 19.2566 31.7092 17.7109C31.7092 17.2497 31.5896 16.7886 31.359 16.3872L32.6229 15.1233C34.1772 18.0268 34.5358 21.3488 33.6306 24.5171ZM13.0155 19.0516C13.0155 18.3855 13.5535 17.8475 14.2196 17.8475C14.8857 17.8475 15.4237 18.3855 15.4237 19.0516C15.4237 19.7177 14.8857 20.2557 14.2196 20.2557C13.5535 20.2557 13.0155 19.7177 13.0155 19.0516ZM19.6851 25.7298C19.6851 25.0637 20.2231 24.5256 20.8892 24.5256C21.5553 24.5256 22.0933 25.0637 22.0933 25.7298C22.0933 26.3959 21.5553 26.9339 20.8892 26.9339C20.2231 26.9339 19.6851 26.3959 19.6851 25.7298ZM27.6954 17.7194C27.6954 17.0533 28.2334 16.5153 28.8996 16.5153C29.5657 16.5153 30.1037 17.0533 30.1037 17.7194C30.1037 18.3855 29.5657 18.9235 28.8996 18.9235C28.2334 18.9235 27.6954 18.3855 27.6954 17.7194ZM30.2318 15.2685C29.8304 15.0464 29.3692 14.9269 28.9081 14.9183C27.3624 14.9183 26.107 16.1737 26.107 17.7194C26.107 18.1805 26.2266 18.6417 26.4572 19.0431L22.2214 23.2788C21.8115 23.0483 21.3589 22.9287 20.8977 22.9287C20.4366 22.9287 19.9754 23.0483 19.5741 23.2788L16.6791 20.3838C16.9011 19.9825 17.0206 19.5213 17.0292 19.0601C17.0292 17.523 15.7824 16.2676 14.2367 16.2676C12.9984 16.2676 11.9053 17.0874 11.5637 18.2659H9.34334C10.6414 12.6126 15.7738 8.51345 21.5809 8.50491C25.6203 8.50491 29.4205 10.4691 31.7689 13.7484L30.2318 15.2685Z" fill="white"/>
  <path d="M38.6436 10.9386C39.9075 10.93 41.0177 10.0931 41.3764 8.88899H45.6036V7.26642H41.3764C41.0177 6.06231 39.9075 5.2254 38.6436 5.21686C37.0638 5.21686 35.7828 6.49784 35.7828 8.07771C35.7828 8.55594 35.9109 9.01709 36.1415 9.43554L35.1167 10.4603C29.3181 3.03921 18.5494 1.66429 11.0685 7.40306C7.422 10.2041 5.09063 14.252 4.49284 18.8123C3.89505 23.3725 5.10771 27.8901 7.90024 31.5366C10.539 34.9782 14.3478 37.2754 18.6263 38.0184C22.8706 38.7528 27.1917 37.8732 30.8126 35.5589L39.267 44.0133C39.9673 44.7136 40.8982 45.0979 41.8888 45.0979C42.8794 45.0979 43.8102 44.7136 44.5105 44.0133C45.9537 42.5701 45.9537 40.2131 44.5105 38.7699L36.0561 30.3154C39.6599 24.6877 39.6599 17.4374 36.0561 11.8096L37.2773 10.5884C37.7043 10.8105 38.1654 10.9386 38.6436 10.9386ZM38.6436 6.83943C39.3268 6.83943 39.8819 7.39452 39.8819 8.07771C39.8819 8.76089 39.3268 9.31598 38.6436 9.31598C37.9604 9.31598 37.4054 8.76089 37.4054 8.07771C37.4054 7.39452 37.9604 6.83943 38.6436 6.83943ZM43.3747 39.9142C43.7761 40.307 43.9981 40.828 44.0067 41.3831C44.0152 41.9381 43.8017 42.4676 43.4089 42.869C43.016 43.2704 42.4951 43.4924 41.94 43.5009H41.9144C41.3678 43.5009 40.8469 43.2874 40.4541 42.9031C40.4455 42.8946 40.4285 42.8775 40.4199 42.869L35.0142 37.4633L37.969 34.5085L43.3747 39.9142ZM36.8161 33.3556L33.8613 36.3104L32.1619 34.611C32.179 34.5939 32.1961 34.5854 32.2131 34.5683L32.1619 34.5L32.2217 34.5597C32.2558 34.5256 32.2985 34.5 32.3327 34.4658C32.4266 34.3889 32.5377 34.295 32.6401 34.2096C32.8109 34.0644 32.9561 33.9449 33.0842 33.8253C33.1269 33.7826 33.1696 33.7399 33.2208 33.6972L33.3062 33.6118C33.5881 33.3471 33.8613 33.0738 34.1261 32.792L34.22 32.698C34.2627 32.6553 34.2969 32.6126 34.3396 32.57C34.4591 32.4419 34.5872 32.2881 34.7239 32.1259C34.8092 32.0234 34.8946 31.9209 34.98 31.8184C35.0142 31.7757 35.0398 31.7416 35.074 31.6989C35.0911 31.6818 35.0996 31.6647 35.1167 31.6476L36.8161 33.3556ZM34.2371 30.1105C33.998 30.4435 33.7845 30.7253 33.571 30.9815C33.5283 31.0328 33.4856 31.084 33.4343 31.1353L33.4258 31.1438C33.4002 31.1694 33.3831 31.195 33.3575 31.2207C33.1525 31.4598 32.9305 31.6989 32.717 31.9209C32.6231 32.0234 32.5206 32.1173 32.4266 32.2113C32.2046 32.4333 31.9655 32.6468 31.7264 32.8518C31.6837 32.8859 31.6495 32.9201 31.6068 32.9542C31.5641 32.9884 31.5214 33.0226 31.4873 33.0653C31.2311 33.2788 30.9492 33.4923 30.6162 33.7314C27.2259 36.1481 23.0926 37.1046 18.9764 36.4214C14.8602 35.7382 11.2564 33.4923 8.83962 30.1019C6.4143 26.7116 5.45784 22.5783 6.14103 18.4621C6.82422 14.3459 9.07019 10.7507 12.4605 8.32536C15.1335 6.42952 18.2591 5.42182 21.5042 5.42182C22.3667 5.42182 23.2463 5.49868 24.1003 5.63531C28.2165 6.3185 31.8118 8.56448 34.2371 11.9548C38.1227 17.3861 38.1227 24.6791 34.2371 30.1105Z" fill="white"/>
</svg>