<svg xmlns:xlink="http://www.w3.org/1999/xlink" xmlns="http://www.w3.org/2000/svg" width="49" height="49" viewBox="0 0 49 49" fill="none">
  <path d="M16.5644 20.3512C16.4146 20.2014 16.2068 20.1152 15.9949 20.1152C15.7831 20.1152 15.5754 20.2013 15.4255 20.3512C15.2756 20.5011 15.1895 20.7089 15.1895 20.9207C15.1895 21.1325 15.2756 21.3404 15.4255 21.4901C15.5753 21.6399 15.7831 21.7262 15.9949 21.7262C16.2068 21.7262 16.4146 21.64 16.5644 21.4901C16.7142 21.3404 16.8004 21.1325 16.8004 20.9207C16.8004 20.7089 16.7142 20.5011 16.5644 20.3512Z" fill="white"/>
  <path d="M43.1791 3.52246H11.1212C9.7888 3.52246 8.70479 4.60647 8.70479 5.93889V19.3098C8.70479 20.6422 9.7888 21.7262 11.1212 21.7262H12.5711C13.0159 21.7262 13.3765 21.3655 13.3765 20.9207C13.3765 20.4759 13.0159 20.1152 12.5711 20.1152H11.1212C10.6771 20.1152 10.3157 19.7539 10.3157 19.3098V5.93889C10.3157 5.49475 10.6771 5.13341 11.1212 5.13341H43.1791C43.6233 5.13341 43.9846 5.49475 43.9846 5.93889V19.3098C43.9846 19.7539 43.6233 20.1152 43.1791 20.1152H37.7915C37.5779 20.1152 37.373 20.2001 37.222 20.3512L34.5696 23.0035L31.9173 20.3512C31.7663 20.2001 31.5614 20.1152 31.3477 20.1152H25.0662C25.007 19.9632 24.9401 19.8131 24.8643 19.6659C24.2876 18.5454 23.3059 17.7264 22.1002 17.3599L20.9357 17.0058C20.5257 16.8809 20.0898 17.0994 19.944 17.5024L18.1141 22.5599C17.6066 23.9626 16.6055 25.128 15.2955 25.8414L13.5778 26.7767C13.1556 26.2642 12.5165 25.937 11.8022 25.937H6.65526C5.38712 25.937 4.35547 26.9687 4.35547 28.2368V42.4628C4.35531 43.731 5.38704 44.7628 6.65518 44.7628H11.8022C12.6039 44.7628 13.3107 44.3501 13.7225 43.7263L14.5444 44.0486C15.7528 44.5227 17.0237 44.7629 18.3219 44.7629H29.19C30.8207 44.7629 32.1473 43.4363 32.1473 41.8056C32.1473 41.2659 32.0013 40.7599 31.7477 40.3239C32.9473 39.9468 33.8201 38.8245 33.8201 37.502C33.8201 36.9485 33.6669 36.4303 33.4012 35.9869C34.5498 35.5806 35.3751 34.4843 35.3751 33.1982C35.3751 31.8587 34.4796 30.725 33.2561 30.3627C33.5049 29.9297 33.6479 29.4286 33.6479 28.8944C33.6479 27.2638 32.3213 25.9371 30.6906 25.9371H24.2317L25.1349 23.2554C25.3038 22.7541 25.3837 22.2386 25.3782 21.7263H31.0141L34.0001 24.7122C34.1574 24.8695 34.3635 24.9482 34.5696 24.9482C34.7758 24.9482 34.982 24.8695 35.1392 24.7122L38.1252 21.7262H43.1791C44.5115 21.7262 45.5955 20.6422 45.5955 19.3098V5.93889C45.5955 4.60647 44.5115 3.52246 43.1791 3.52246ZM12.4911 42.4629C12.491 42.8428 12.182 43.1518 11.8022 43.1518H6.65518C6.27532 43.1518 5.96634 42.8428 5.96634 42.4629V28.2369C5.96634 27.8571 6.27532 27.548 6.65518 27.548H8.4232V37.4651C8.4232 37.9099 8.78381 38.2706 9.22867 38.2706C9.67354 38.2706 10.0341 37.9099 10.0341 37.4651V27.548H11.8022C12.103 27.548 12.3587 27.7422 12.4524 28.0116C12.4591 28.0505 12.4688 28.0892 12.4815 28.1275C12.4872 28.1632 12.4911 28.1996 12.4911 28.2369V42.4629ZM30.6907 27.5479V27.548C31.4331 27.548 32.0371 28.152 32.0371 28.8944C32.0371 29.6368 31.4331 30.2408 30.6907 30.2408H26.3209C25.8761 30.2408 25.5155 30.6015 25.5155 31.0463C25.5155 31.491 25.8761 31.8517 26.3209 31.8517L32.4179 31.8519C33.1603 31.8519 33.7642 32.4558 33.7642 33.1982C33.7642 33.9407 33.1603 34.5447 32.4179 34.5447H26.3209C25.8761 34.5447 25.5155 34.9054 25.5155 35.3502C25.5155 35.7949 25.8761 36.1556 26.3209 36.1556H30.8628C31.6052 36.1556 32.2092 36.7596 32.2092 37.502C32.2092 38.2444 31.6052 38.8483 30.8628 38.8483H26.3209C25.8761 38.8483 25.5155 39.209 25.5155 39.6538C25.5155 40.0986 25.8761 40.4593 26.3209 40.4593H29.1901C29.9325 40.4593 30.5365 41.0633 30.5365 41.8057C30.5365 42.5481 29.9325 43.1521 29.1901 43.1521H18.3219C17.2259 43.1521 16.1529 42.9491 15.1326 42.549L14.102 42.1448V28.3255L16.0658 27.2562C17.7219 26.3544 18.9872 24.8812 19.6288 23.108L21.1986 18.7695L21.6316 18.9012C22.417 19.14 23.0563 19.6734 23.432 20.4031C23.8077 21.1329 23.8703 21.9632 23.6083 22.7411L22.3471 26.4853C22.2643 26.7312 22.305 27.0018 22.4563 27.2124C22.6076 27.423 22.851 27.5479 23.1105 27.5479H30.6907Z" fill="white"/>
  <path d="M41.9065 11.3339C41.754 10.8648 41.3559 10.5293 40.8676 10.4585L39.4429 10.2519L38.8054 8.96109C38.5869 8.51881 38.145 8.24414 37.6517 8.24414C37.6517 8.24414 37.6514 8.24414 37.6514 8.24414C37.158 8.2443 36.716 8.51921 36.4978 8.96166L35.8609 10.2528L34.4362 10.4602C33.948 10.5314 33.5501 10.867 33.3978 11.3363C33.2455 11.8055 33.3703 12.3109 33.7238 12.6552L34.755 13.6598L34.5119 15.0788C34.4287 15.5652 34.6249 16.0473 35.0241 16.3372C35.2497 16.501 35.5134 16.5841 35.779 16.5841C35.9836 16.5841 36.1893 16.5347 36.3794 16.4348L37.6535 15.7645L38.928 16.434C39.3648 16.6634 39.884 16.6258 40.2831 16.3357C40.6821 16.0456 40.8781 15.5633 40.7946 15.0771L40.5508 13.6582L41.5816 12.653C41.9345 12.3084 42.0591 11.803 41.9065 11.3339ZM39.3038 12.624C39.0005 12.9197 38.8624 13.3455 38.9341 13.763L39.0954 14.7024L38.2514 14.2589C37.8763 14.0622 37.4287 14.0622 37.0541 14.2593L36.2105 14.7032L36.3714 13.7637C36.4429 13.3461 36.3044 12.9203 36.001 12.6248L35.3182 11.9596L36.2615 11.8223C36.6808 11.7613 37.0428 11.4981 37.2301 11.1182L37.6518 10.2634L38.0738 11.118C38.2614 11.4978 38.6237 11.7608 39.0428 11.8216L39.9861 11.9583L39.3038 12.624Z" fill="white"/>
  <path d="M31.6604 11.3339C31.5078 10.8648 31.1098 10.5294 30.6215 10.4585L29.1968 10.2519L28.5593 8.96109C28.3408 8.51881 27.8989 8.24414 27.4056 8.24414C27.4055 8.24414 27.4053 8.24414 27.4053 8.24414C26.9119 8.2443 26.4698 8.51921 26.2516 8.96174L25.6149 10.2528L24.1901 10.4602C23.7019 10.5314 23.304 10.867 23.1517 11.3363C22.9994 11.8055 23.1242 12.3109 23.4777 12.6552L24.5089 13.6598L24.2658 15.0788C24.1826 15.5652 24.3789 16.0473 24.778 16.3372C25.0035 16.501 25.2673 16.5841 25.5329 16.5841C25.7375 16.5841 25.9431 16.5347 26.1331 16.4348L27.4073 15.7645L28.6819 16.434C29.1187 16.6634 29.6377 16.6258 30.0369 16.3357C30.4359 16.0456 30.6319 15.5633 30.5484 15.0771L30.3047 13.6582L31.3354 12.653C31.6885 12.3084 31.8131 11.8031 31.6604 11.3339ZM29.0577 12.624C28.7544 12.9197 28.6163 13.3455 28.688 13.763L28.8493 14.7024L28.0053 14.2589C27.6302 14.062 27.1826 14.0622 26.8079 14.2593L25.9644 14.7032L26.1252 13.7637C26.1967 13.3461 26.0583 12.9203 25.7548 12.6248L25.072 11.9596L26.0153 11.8223C26.4344 11.7613 26.7965 11.4982 26.984 11.1182L27.4056 10.2633L27.8276 11.1178C28.0151 11.4977 28.3774 11.7608 28.7966 11.8216L29.7399 11.9583L29.0577 12.624Z" fill="white"/>
  <path d="M21.4124 11.3339C21.2598 10.8648 20.8617 10.5293 20.3735 10.4585L18.9488 10.2519L18.3113 8.96109C18.0928 8.51881 17.6509 8.24414 17.1576 8.24414C17.1575 8.24414 17.1574 8.24414 17.1573 8.24414C16.6639 8.2443 16.2218 8.51921 16.0036 8.96174L15.3669 10.2528L13.9422 10.4602C13.4539 10.5314 13.0561 10.8671 12.9037 11.3364C12.7513 11.8055 12.8763 12.311 13.2296 12.6552L14.2608 13.6598L14.0178 15.0788C13.9345 15.5652 14.1308 16.0473 14.53 16.3372C14.7554 16.501 15.0192 16.5841 15.2848 16.5841C15.4894 16.5841 15.695 16.5347 15.885 16.4348L17.1592 15.7645L18.4337 16.434C18.8705 16.6634 19.3897 16.6258 19.7888 16.3357C20.1878 16.0456 20.3838 15.5633 20.3003 15.0771L20.0565 13.6582L21.0873 12.653C21.4405 12.3084 21.565 11.8031 21.4124 11.3339ZM18.8097 12.624C18.5065 12.9197 18.3683 13.3455 18.44 13.763L18.6013 14.7024L17.7573 14.2589C17.3823 14.062 16.9345 14.0622 16.5599 14.2593L15.7164 14.7032L15.8773 13.7635C15.9487 13.346 15.8102 12.9204 15.5069 12.6248L14.8241 11.9596L15.7673 11.8223C16.1864 11.7613 16.5485 11.4982 16.736 11.1182L17.1576 10.2633L17.5796 11.1178C17.7671 11.4977 18.1294 11.7608 18.5487 11.8216L19.492 11.9583L18.8097 12.624Z" fill="white"/>
  <path d="M9.2293 39.5562C8.78444 39.5562 8.42383 39.9168 8.42383 40.3616V40.3742C8.42383 40.819 8.78444 41.1797 9.2293 41.1797C9.67417 41.1797 10.0348 40.819 10.0348 40.3742V40.3616C10.0348 39.9168 9.67417 39.5562 9.2293 39.5562Z" fill="white"/>
</svg>